<mxfile host="app.diagrams.net" modified="2024-03-09T03:24:35.551Z" agent="Mozilla/5.0 (Windows NT 10.0; Win64; x64) AppleWebKit/537.36 (KHTML, like Gecko) Chrome/122.0.0.0 Safari/537.36" etag="USMHIC-abRgZot_7SBGp" version="24.0.2" type="github">
  <diagram name="Page-1" id="jYmZV8ITqJIYFZot-3bw">
    <mxGraphModel dx="880" dy="1568" grid="1" gridSize="10" guides="1" tooltips="1" connect="1" arrows="1" fold="1" page="1" pageScale="1" pageWidth="850" pageHeight="1100" math="0" shadow="0">
      <root>
        <mxCell id="0" />
        <mxCell id="1" parent="0" />
        <mxCell id="PU0SAnK2rKoTtU8Le6aB-31" value="Collection" style="html=1;overflow=block;blockSpacing=1;whiteSpace=wrap;fontSize=16.7;spacing=9;strokeColor=#000000;rounded=1;absoluteArcSize=1;arcSize=9;fillColor=none;strokeWidth=NaN;lucidId=z6OhcGJRqZKo;" vertex="1" parent="1">
          <mxGeometry x="90" y="100" width="105" height="30" as="geometry" />
        </mxCell>
        <mxCell id="PU0SAnK2rKoTtU8Le6aB-32" value="ColName" style="html=1;overflow=block;blockSpacing=1;whiteSpace=wrap;fontSize=16.7;fontStyle=4;spacing=9;strokeColor=#000000;rounded=1;absoluteArcSize=1;arcSize=9;fillColor=none;strokeWidth=NaN;lucidId=z6OhFYOiw2YT;" vertex="1" parent="1">
          <mxGeometry x="195" y="130" width="90" height="30" as="geometry" />
        </mxCell>
        <mxCell id="PU0SAnK2rKoTtU8Le6aB-33" value="Description" style="html=1;overflow=block;blockSpacing=1;whiteSpace=wrap;fontSize=16.7;spacing=9;strokeColor=#000000;rounded=1;absoluteArcSize=1;arcSize=9;fillColor=none;strokeWidth=NaN;lucidId=z6OhiKPOUx.W;" vertex="1" parent="1">
          <mxGeometry x="90" y="130" width="105" height="30" as="geometry" />
        </mxCell>
        <mxCell id="PU0SAnK2rKoTtU8Le6aB-34" value="ContactPerson" style="html=1;overflow=block;blockSpacing=1;whiteSpace=wrap;fontSize=16.7;spacing=9;strokeColor=#000000;rounded=1;absoluteArcSize=1;arcSize=9;fillColor=none;strokeWidth=NaN;lucidId=z6OhyAOiYPFw;" vertex="1" parent="1">
          <mxGeometry x="285" y="130" width="135" height="30" as="geometry" />
        </mxCell>
        <mxCell id="PU0SAnK2rKoTtU8Le6aB-35" value="Borrowed" style="html=1;overflow=block;blockSpacing=1;whiteSpace=wrap;fontSize=16.7;spacing=9;strokeColor=#000000;rounded=1;absoluteArcSize=1;arcSize=9;fillColor=none;strokeWidth=NaN;lucidId=06OhShUhUDYR;" vertex="1" parent="1">
          <mxGeometry x="90" width="105" height="30" as="geometry" />
        </mxCell>
        <mxCell id="PU0SAnK2rKoTtU8Le6aB-36" value="DateBorrowed" style="html=1;overflow=block;blockSpacing=1;whiteSpace=wrap;fontSize=16.7;spacing=9;strokeColor=#000000;rounded=1;absoluteArcSize=1;arcSize=9;fillColor=none;strokeWidth=NaN;lucidId=06OhBbWzA.Sx;" vertex="1" parent="1">
          <mxGeometry x="195" y="30" width="150" height="30" as="geometry" />
        </mxCell>
        <mxCell id="PU0SAnK2rKoTtU8Le6aB-37" value="Id_No" style="html=1;overflow=block;blockSpacing=1;whiteSpace=wrap;fontSize=16.7;fontStyle=4;spacing=9;strokeColor=#000000;rounded=1;absoluteArcSize=1;arcSize=9;fillColor=none;strokeWidth=NaN;lucidId=06Ohtj7bPAB8;" vertex="1" parent="1">
          <mxGeometry x="90" y="30" width="105" height="30" as="geometry" />
        </mxCell>
        <mxCell id="PU0SAnK2rKoTtU8Le6aB-38" value="ReturnDate" style="html=1;overflow=block;blockSpacing=1;whiteSpace=wrap;fontSize=16.7;spacing=9;strokeColor=#000000;rounded=1;absoluteArcSize=1;arcSize=9;fillColor=none;strokeWidth=NaN;lucidId=06OhZb7.HwIv;" vertex="1" parent="1">
          <mxGeometry x="345" y="30" width="120" height="30" as="geometry" />
        </mxCell>
        <mxCell id="PU0SAnK2rKoTtU8Le6aB-39" value="Exhibition" style="html=1;overflow=block;blockSpacing=1;whiteSpace=wrap;fontSize=16.7;spacing=9;strokeColor=#000000;rounded=1;absoluteArcSize=1;arcSize=9;fillColor=none;strokeWidth=NaN;lucidId=l7OhnkoHDzzh;" vertex="1" parent="1">
          <mxGeometry x="90" y="300" width="105" height="30" as="geometry" />
        </mxCell>
        <mxCell id="PU0SAnK2rKoTtU8Le6aB-40" value="EName" style="html=1;overflow=block;blockSpacing=1;whiteSpace=wrap;fontSize=16.7;fontStyle=4;spacing=9;strokeColor=#000000;rounded=1;absoluteArcSize=1;arcSize=9;fillColor=none;strokeWidth=NaN;lucidId=l7Oh36cRQDnZ;" vertex="1" parent="1">
          <mxGeometry x="300" y="330" width="90" height="30" as="geometry" />
        </mxCell>
        <mxCell id="PU0SAnK2rKoTtU8Le6aB-41" value="StartDate" style="html=1;overflow=block;blockSpacing=1;whiteSpace=wrap;fontSize=16.7;spacing=9;strokeColor=#000000;rounded=1;absoluteArcSize=1;arcSize=9;fillColor=none;strokeWidth=NaN;lucidId=l7OhfUKPER33;" vertex="1" parent="1">
          <mxGeometry x="90" y="330" width="105" height="30" as="geometry" />
        </mxCell>
        <mxCell id="PU0SAnK2rKoTtU8Le6aB-42" value="Type" style="html=1;overflow=block;blockSpacing=1;whiteSpace=wrap;fontSize=16.7;spacing=9;strokeColor=#000000;rounded=1;absoluteArcSize=1;arcSize=9;fillColor=none;strokeWidth=NaN;lucidId=DPVhVUuUjoyy;" vertex="1" parent="1">
          <mxGeometry x="420" y="130" width="90" height="30" as="geometry" />
        </mxCell>
        <mxCell id="PU0SAnK2rKoTtU8Le6aB-43" value="PhoneNumber" style="html=1;overflow=block;blockSpacing=1;whiteSpace=wrap;fontSize=16.7;spacing=9;strokeColor=#000000;rounded=1;absoluteArcSize=1;arcSize=9;fillColor=none;strokeWidth=NaN;lucidId=DPVh~spQSDsb;" vertex="1" parent="1">
          <mxGeometry x="510" y="130" width="135" height="30" as="geometry" />
        </mxCell>
        <mxCell id="PU0SAnK2rKoTtU8Le6aB-44" value="Permanent" style="html=1;overflow=block;blockSpacing=1;whiteSpace=wrap;fontSize=16.7;spacing=9;strokeColor=#000000;rounded=1;absoluteArcSize=1;arcSize=9;fillColor=none;strokeWidth=NaN;lucidId=HRVhk1lA1T~s;" vertex="1" parent="1">
          <mxGeometry x="90" y="-105" width="120" height="30" as="geometry" />
        </mxCell>
        <mxCell id="PU0SAnK2rKoTtU8Le6aB-45" value="Cost" style="html=1;overflow=block;blockSpacing=1;whiteSpace=wrap;fontSize=16.7;fontStyle=4;spacing=9;strokeColor=#000000;rounded=1;absoluteArcSize=1;arcSize=9;fillColor=none;strokeWidth=NaN;lucidId=HRVhsQTKawpQ;" vertex="1" parent="1">
          <mxGeometry x="195" y="-75" width="90" height="30" as="geometry" />
        </mxCell>
        <mxCell id="PU0SAnK2rKoTtU8Le6aB-46" value="Id_No" style="html=1;overflow=block;blockSpacing=1;whiteSpace=wrap;fontSize=16.7;fontStyle=4;spacing=9;strokeColor=#000000;rounded=1;absoluteArcSize=1;arcSize=9;fillColor=none;strokeWidth=NaN;lucidId=HRVh778z.GH.;" vertex="1" parent="1">
          <mxGeometry x="90" y="-75" width="105" height="30" as="geometry" />
        </mxCell>
        <mxCell id="PU0SAnK2rKoTtU8Le6aB-47" value="ArtObject" style="html=1;overflow=block;blockSpacing=1;whiteSpace=wrap;fontSize=16.7;spacing=9;strokeColor=#000000;rounded=1;absoluteArcSize=1;arcSize=9;fillColor=none;strokeWidth=NaN;lucidId=2RVhFVYXzwJT;" vertex="1" parent="1">
          <mxGeometry x="90" y="195" width="120" height="30" as="geometry" />
        </mxCell>
        <mxCell id="PU0SAnK2rKoTtU8Le6aB-48" value="Id_No" style="html=1;overflow=block;blockSpacing=1;whiteSpace=wrap;fontSize=16.7;fontStyle=4;spacing=9;strokeColor=#000000;rounded=1;absoluteArcSize=1;arcSize=9;fillColor=none;strokeWidth=NaN;lucidId=2RVh2l~SY1wu;" vertex="1" parent="1">
          <mxGeometry x="195" y="225" width="105" height="30" as="geometry" />
        </mxCell>
        <mxCell id="PU0SAnK2rKoTtU8Le6aB-49" value="Year" style="html=1;overflow=block;blockSpacing=1;whiteSpace=wrap;fontSize=16.7;spacing=9;strokeColor=#000000;rounded=1;absoluteArcSize=1;arcSize=9;fillColor=none;strokeWidth=NaN;lucidId=2RVhnAuz1.Ty;" vertex="1" parent="1">
          <mxGeometry x="90" y="225" width="105" height="30" as="geometry" />
        </mxCell>
        <mxCell id="PU0SAnK2rKoTtU8Le6aB-50" value="Description" style="html=1;overflow=block;blockSpacing=1;whiteSpace=wrap;fontSize=16.7;spacing=9;strokeColor=#000000;rounded=1;absoluteArcSize=1;arcSize=9;fillColor=none;strokeWidth=NaN;lucidId=LSVhGU_fYiH8;" vertex="1" parent="1">
          <mxGeometry x="413" y="225" width="113" height="30" as="geometry" />
        </mxCell>
        <mxCell id="PU0SAnK2rKoTtU8Le6aB-51" value="Title" style="html=1;overflow=block;blockSpacing=1;whiteSpace=wrap;fontSize=16.7;spacing=9;strokeColor=#000000;rounded=1;absoluteArcSize=1;arcSize=9;fillColor=none;strokeWidth=NaN;lucidId=LSVhs00ke4gj;" vertex="1" parent="1">
          <mxGeometry x="300" y="225" width="112" height="30" as="geometry" />
        </mxCell>
        <mxCell id="PU0SAnK2rKoTtU8Le6aB-52" value="" style="html=1;jettySize=18;whiteSpace=wrap;fontSize=13;strokeColor=#3a414a;strokeOpacity=100;strokeWidth=0.8;rounded=1;arcSize=12;edgeStyle=orthogonalEdgeStyle;startArrow=none;endArrow=block;endFill=1;exitX=0.5;exitY=-0.012;exitPerimeter=0;entryX=-0.004;entryY=0.5;entryPerimeter=0;lucidId=HTVhlyadzJpf;" edge="1" parent="1" source="PU0SAnK2rKoTtU8Le6aB-48" target="PU0SAnK2rKoTtU8Le6aB-46">
          <mxGeometry width="100" height="100" relative="1" as="geometry">
            <Array as="points">
              <mxPoint x="248" y="180" />
              <mxPoint x="60" y="180" />
              <mxPoint x="60" y="-60" />
            </Array>
          </mxGeometry>
        </mxCell>
        <mxCell id="PU0SAnK2rKoTtU8Le6aB-53" value="" style="html=1;jettySize=18;whiteSpace=wrap;fontSize=13;strokeColor=#3a414a;strokeOpacity=100;strokeWidth=0.8;rounded=1;arcSize=12;edgeStyle=orthogonalEdgeStyle;startArrow=none;endArrow=block;endFill=1;exitX=0.5;exitY=-0.012;exitPerimeter=0;entryX=-0.004;entryY=0.5;entryPerimeter=0;lucidId=7TVhg8g4fRHh;" edge="1" parent="1" source="PU0SAnK2rKoTtU8Le6aB-48" target="PU0SAnK2rKoTtU8Le6aB-37">
          <mxGeometry width="100" height="100" relative="1" as="geometry">
            <Array as="points">
              <mxPoint x="248" y="180" />
              <mxPoint x="60" y="180" />
              <mxPoint x="60" y="45" />
            </Array>
          </mxGeometry>
        </mxCell>
        <mxCell id="PU0SAnK2rKoTtU8Le6aB-54" value="Source" style="html=1;overflow=block;blockSpacing=1;whiteSpace=wrap;fontSize=16.7;spacing=9;strokeColor=#000000;rounded=1;absoluteArcSize=1;arcSize=9;fillColor=none;strokeWidth=NaN;lucidId=QVVh2u8bxX6B;" vertex="1" parent="1">
          <mxGeometry x="285" y="-75" width="105" height="30" as="geometry" />
        </mxCell>
        <mxCell id="PU0SAnK2rKoTtU8Le6aB-55" value="DateAcquired" style="html=1;overflow=block;blockSpacing=1;whiteSpace=wrap;fontSize=16.7;spacing=9;strokeColor=#000000;rounded=1;absoluteArcSize=1;arcSize=9;fillColor=none;strokeWidth=NaN;lucidId=QVVhb0YnoQu_;" vertex="1" parent="1">
          <mxGeometry x="390" y="-74" width="150" height="30" as="geometry" />
        </mxCell>
        <mxCell id="PU0SAnK2rKoTtU8Le6aB-56" value="OnDisplay" style="html=1;overflow=block;blockSpacing=1;whiteSpace=wrap;fontSize=16.7;spacing=9;strokeColor=#000000;rounded=1;absoluteArcSize=1;arcSize=9;fillColor=none;strokeWidth=NaN;lucidId=oWVhpgzm7bF_;" vertex="1" parent="1">
          <mxGeometry x="540" y="-74" width="150" height="30" as="geometry" />
        </mxCell>
        <mxCell id="PU0SAnK2rKoTtU8Le6aB-57" value="ColName" style="html=1;overflow=block;blockSpacing=1;whiteSpace=wrap;fontSize=16.7;spacing=9;strokeColor=#000000;rounded=1;absoluteArcSize=1;arcSize=9;fillColor=none;strokeWidth=NaN;lucidId=70VhpP5AGjuV;" vertex="1" parent="1">
          <mxGeometry x="465" y="29" width="135" height="30" as="geometry" />
        </mxCell>
        <mxCell id="PU0SAnK2rKoTtU8Le6aB-58" value="" style="html=1;jettySize=18;whiteSpace=wrap;fontSize=13;strokeColor=#3a414a;strokeOpacity=100;strokeWidth=0.8;rounded=1;arcSize=12;edgeStyle=orthogonalEdgeStyle;startArrow=none;endArrow=block;endFill=1;exitX=0.5;exitY=-0.012;exitPerimeter=0;entryX=0.5;entryY=1.013;entryPerimeter=0;lucidId=o1Vhxp~lWufo;" edge="1" parent="1" source="PU0SAnK2rKoTtU8Le6aB-32" target="PU0SAnK2rKoTtU8Le6aB-57">
          <mxGeometry width="100" height="100" relative="1" as="geometry">
            <Array as="points" />
          </mxGeometry>
        </mxCell>
        <mxCell id="PU0SAnK2rKoTtU8Le6aB-59" value="EndDate" style="html=1;overflow=block;blockSpacing=1;whiteSpace=wrap;fontSize=16.7;spacing=9;strokeColor=#000000;rounded=1;absoluteArcSize=1;arcSize=9;fillColor=none;strokeWidth=NaN;lucidId=J3Vh3YbZTTIE;" vertex="1" parent="1">
          <mxGeometry x="195" y="330" width="105" height="30" as="geometry" />
        </mxCell>
        <mxCell id="PU0SAnK2rKoTtU8Le6aB-60" value="ShownAt" style="html=1;overflow=block;blockSpacing=1;whiteSpace=wrap;fontSize=16.7;spacing=9;strokeColor=#000000;rounded=1;absoluteArcSize=1;arcSize=9;fillColor=none;strokeWidth=NaN;lucidId=f4VhP.gbSK3B;" vertex="1" parent="1">
          <mxGeometry x="90" y="405" width="105" height="30" as="geometry" />
        </mxCell>
        <mxCell id="PU0SAnK2rKoTtU8Le6aB-61" value="ArtId_No" style="html=1;overflow=block;blockSpacing=1;whiteSpace=wrap;fontSize=16.7;fontStyle=4;spacing=9;strokeColor=#000000;rounded=1;absoluteArcSize=1;arcSize=9;fillColor=none;strokeWidth=NaN;lucidId=f4Vh6IjCRE0N;" vertex="1" parent="1">
          <mxGeometry x="90" y="435" width="105" height="30" as="geometry" />
        </mxCell>
        <mxCell id="PU0SAnK2rKoTtU8Le6aB-62" value="ExhibitName" style="html=1;overflow=block;blockSpacing=1;whiteSpace=wrap;fontSize=16.7;fontStyle=4;spacing=9;strokeColor=#000000;rounded=1;absoluteArcSize=1;arcSize=9;fillColor=none;strokeWidth=NaN;lucidId=f4VhyrElFNet;" vertex="1" parent="1">
          <mxGeometry x="195" y="435" width="135" height="30" as="geometry" />
        </mxCell>
        <mxCell id="PU0SAnK2rKoTtU8Le6aB-63" value="" style="html=1;jettySize=18;whiteSpace=wrap;fontSize=13;strokeColor=#3a414a;strokeOpacity=100;strokeWidth=0.8;rounded=1;arcSize=12;edgeStyle=orthogonalEdgeStyle;startArrow=none;endArrow=block;endFill=1;exitX=0.5;exitY=-0.012;exitPerimeter=0;entryX=0.5;entryY=1.012;entryPerimeter=0;lucidId=e5Vh-jkPAVZG;" edge="1" parent="1" source="PU0SAnK2rKoTtU8Le6aB-62" target="PU0SAnK2rKoTtU8Le6aB-40">
          <mxGeometry width="100" height="100" relative="1" as="geometry">
            <Array as="points" />
          </mxGeometry>
        </mxCell>
        <mxCell id="PU0SAnK2rKoTtU8Le6aB-64" value="" style="html=1;jettySize=18;whiteSpace=wrap;fontSize=13;strokeColor=#3a414a;strokeOpacity=100;strokeWidth=0.8;rounded=1;arcSize=12;edgeStyle=orthogonalEdgeStyle;startArrow=none;endArrow=block;endFill=1;exitX=-0.004;exitY=0.5;exitPerimeter=0;entryX=0.5;entryY=1.012;entryPerimeter=0;lucidId=i5Vh5s6amjdB;" edge="1" parent="1" source="PU0SAnK2rKoTtU8Le6aB-61" target="PU0SAnK2rKoTtU8Le6aB-48">
          <mxGeometry width="100" height="100" relative="1" as="geometry">
            <Array as="points">
              <mxPoint x="72" y="450" />
              <mxPoint x="72" y="280" />
              <mxPoint x="248" y="280" />
            </Array>
          </mxGeometry>
        </mxCell>
        <mxCell id="PU0SAnK2rKoTtU8Le6aB-65" value="Painting" style="html=1;overflow=block;blockSpacing=1;whiteSpace=wrap;fontSize=16.7;spacing=9;strokeColor=#000000;rounded=1;absoluteArcSize=1;arcSize=9;fillColor=none;strokeWidth=NaN;lucidId=ebWhU4pU5aa8;" vertex="1" parent="1">
          <mxGeometry x="90" y="510" width="105" height="30" as="geometry" />
        </mxCell>
        <mxCell id="PU0SAnK2rKoTtU8Le6aB-66" value="Material" style="html=1;overflow=block;blockSpacing=1;whiteSpace=wrap;fontSize=16.7;spacing=9;strokeColor=#000000;rounded=1;absoluteArcSize=1;arcSize=9;fillColor=none;strokeWidth=NaN;lucidId=ebWhhy0-B8kS;" vertex="1" parent="1">
          <mxGeometry x="300" y="540" width="105" height="30" as="geometry" />
        </mxCell>
        <mxCell id="PU0SAnK2rKoTtU8Le6aB-67" value="Style" style="html=1;overflow=block;blockSpacing=1;whiteSpace=wrap;fontSize=16.7;spacing=9;strokeColor=#000000;rounded=1;absoluteArcSize=1;arcSize=9;fillColor=none;strokeWidth=NaN;lucidId=ebWhHU~bRM-j;" vertex="1" parent="1">
          <mxGeometry x="90" y="540" width="105" height="30" as="geometry" />
        </mxCell>
        <mxCell id="PU0SAnK2rKoTtU8Le6aB-68" value="ArtId_No" style="html=1;overflow=block;blockSpacing=1;whiteSpace=wrap;fontSize=16.7;fontStyle=4;spacing=9;strokeColor=#000000;rounded=1;absoluteArcSize=1;arcSize=9;fillColor=none;strokeWidth=NaN;lucidId=ebWhjD3c_DRG;" vertex="1" parent="1">
          <mxGeometry x="195" y="540" width="105" height="30" as="geometry" />
        </mxCell>
        <mxCell id="PU0SAnK2rKoTtU8Le6aB-69" value="Other" style="html=1;overflow=block;blockSpacing=1;whiteSpace=wrap;fontSize=16.7;spacing=9;strokeColor=#000000;rounded=1;absoluteArcSize=1;arcSize=9;fillColor=none;strokeWidth=NaN;lucidId=obWh4gxXi3Te;" vertex="1" parent="1">
          <mxGeometry x="90" y="615" width="105" height="30" as="geometry" />
        </mxCell>
        <mxCell id="PU0SAnK2rKoTtU8Le6aB-70" value="ArtId_No" style="html=1;overflow=block;blockSpacing=1;whiteSpace=wrap;fontSize=16.7;fontStyle=4;spacing=9;strokeColor=#000000;rounded=1;absoluteArcSize=1;arcSize=9;fillColor=none;strokeWidth=NaN;lucidId=obWh5pjX~.Bz;" vertex="1" parent="1">
          <mxGeometry x="285" y="645" width="105" height="30" as="geometry" />
        </mxCell>
        <mxCell id="PU0SAnK2rKoTtU8Le6aB-71" value="Type" style="html=1;overflow=block;blockSpacing=1;whiteSpace=wrap;fontSize=16.7;spacing=9;strokeColor=#000000;rounded=1;absoluteArcSize=1;arcSize=9;fillColor=none;strokeWidth=NaN;lucidId=obWh15mnABlZ;" vertex="1" parent="1">
          <mxGeometry x="90" y="645" width="90" height="30" as="geometry" />
        </mxCell>
        <mxCell id="PU0SAnK2rKoTtU8Le6aB-72" value="Style" style="html=1;overflow=block;blockSpacing=1;whiteSpace=wrap;fontSize=16.7;spacing=9;strokeColor=#000000;rounded=1;absoluteArcSize=1;arcSize=9;fillColor=none;strokeWidth=NaN;lucidId=obWhUZgS65qC;" vertex="1" parent="1">
          <mxGeometry x="180" y="645" width="105" height="30" as="geometry" />
        </mxCell>
        <mxCell id="PU0SAnK2rKoTtU8Le6aB-73" value="Sculpture" style="html=1;overflow=block;blockSpacing=1;whiteSpace=wrap;fontSize=16.7;spacing=9;strokeColor=#000000;rounded=1;absoluteArcSize=1;arcSize=9;fillColor=none;strokeWidth=NaN;lucidId=YcWh48UqgWhw;" vertex="1" parent="1">
          <mxGeometry x="90" y="720" width="105" height="30" as="geometry" />
        </mxCell>
        <mxCell id="PU0SAnK2rKoTtU8Le6aB-74" value="Material" style="html=1;overflow=block;blockSpacing=1;whiteSpace=wrap;fontSize=16.7;spacing=9;strokeColor=#000000;rounded=1;absoluteArcSize=1;arcSize=9;fillColor=none;strokeWidth=NaN;lucidId=YcWhWastKNq_;" vertex="1" parent="1">
          <mxGeometry x="300" y="750" width="105" height="30" as="geometry" />
        </mxCell>
        <mxCell id="PU0SAnK2rKoTtU8Le6aB-75" value="Styles" style="html=1;overflow=block;blockSpacing=1;whiteSpace=wrap;fontSize=16.7;spacing=9;strokeColor=#000000;rounded=1;absoluteArcSize=1;arcSize=9;fillColor=none;strokeWidth=NaN;lucidId=YcWh6adNhkCn;" vertex="1" parent="1">
          <mxGeometry x="90" y="750" width="105" height="30" as="geometry" />
        </mxCell>
        <mxCell id="PU0SAnK2rKoTtU8Le6aB-76" value="ArtId_No" style="html=1;overflow=block;blockSpacing=1;whiteSpace=wrap;fontSize=16.7;fontStyle=4;spacing=9;strokeColor=#000000;rounded=1;absoluteArcSize=1;arcSize=9;fillColor=none;strokeWidth=NaN;lucidId=YcWhs6zD1rWx;" vertex="1" parent="1">
          <mxGeometry x="195" y="750" width="105" height="30" as="geometry" />
        </mxCell>
        <mxCell id="PU0SAnK2rKoTtU8Le6aB-77" value="Height" style="html=1;overflow=block;blockSpacing=1;whiteSpace=wrap;fontSize=16.7;spacing=9;strokeColor=#000000;rounded=1;absoluteArcSize=1;arcSize=9;fillColor=none;strokeWidth=NaN;lucidId=BdWhoVx~e8Pw;" vertex="1" parent="1">
          <mxGeometry x="405" y="750" width="90" height="30" as="geometry" />
        </mxCell>
        <mxCell id="PU0SAnK2rKoTtU8Le6aB-78" value="Weight" style="html=1;overflow=block;blockSpacing=1;whiteSpace=wrap;fontSize=16.7;spacing=9;strokeColor=#000000;rounded=1;absoluteArcSize=1;arcSize=9;fillColor=none;strokeWidth=NaN;lucidId=BdWhh6PmIsSp;" vertex="1" parent="1">
          <mxGeometry x="495" y="750" width="105" height="30" as="geometry" />
        </mxCell>
        <mxCell id="PU0SAnK2rKoTtU8Le6aB-79" value="PaintType" style="html=1;overflow=block;blockSpacing=1;whiteSpace=wrap;fontSize=16.7;spacing=9;strokeColor=#000000;rounded=1;absoluteArcSize=1;arcSize=9;fillColor=none;strokeWidth=NaN;lucidId=.dWhMAGEmdxd;" vertex="1" parent="1">
          <mxGeometry x="600" y="749" width="135" height="30" as="geometry" />
        </mxCell>
        <mxCell id="PU0SAnK2rKoTtU8Le6aB-80" value="" style="html=1;jettySize=18;whiteSpace=wrap;fontSize=13;strokeColor=#3a414a;strokeOpacity=100;strokeWidth=0.8;rounded=1;arcSize=12;edgeStyle=orthogonalEdgeStyle;startArrow=none;endArrow=block;endFill=1;exitX=0.5;exitY=-0.012;exitPerimeter=0;entryX=0.712;entryY=1.012;entryPerimeter=0;lucidId=DeWhJckW7gXF;" edge="1" parent="1" source="PU0SAnK2rKoTtU8Le6aB-70" target="PU0SAnK2rKoTtU8Le6aB-48">
          <mxGeometry width="100" height="100" relative="1" as="geometry">
            <Array as="points">
              <mxPoint x="338" y="629" />
              <mxPoint x="555" y="629" />
              <mxPoint x="555" y="286" />
              <mxPoint x="270" y="286" />
            </Array>
          </mxGeometry>
        </mxCell>
        <mxCell id="PU0SAnK2rKoTtU8Le6aB-81" value="" style="html=1;jettySize=18;whiteSpace=wrap;fontSize=13;strokeColor=#3a414a;strokeOpacity=100;strokeWidth=0.8;rounded=1;arcSize=12;edgeStyle=orthogonalEdgeStyle;startArrow=none;endArrow=block;endFill=1;exitX=0.5;exitY=-0.012;exitPerimeter=0;entryX=0.712;entryY=1.012;entryPerimeter=0;lucidId=UeWhoMFZBrTJ;" edge="1" parent="1" source="PU0SAnK2rKoTtU8Le6aB-76" target="PU0SAnK2rKoTtU8Le6aB-48">
          <mxGeometry width="100" height="100" relative="1" as="geometry">
            <Array as="points">
              <mxPoint x="248" y="728" />
              <mxPoint x="555" y="728" />
              <mxPoint x="555" y="286" />
              <mxPoint x="270" y="286" />
            </Array>
          </mxGeometry>
        </mxCell>
        <mxCell id="PU0SAnK2rKoTtU8Le6aB-82" value="" style="html=1;jettySize=18;whiteSpace=wrap;fontSize=13;strokeColor=#3a414a;strokeOpacity=100;strokeWidth=0.8;rounded=1;arcSize=12;edgeStyle=orthogonalEdgeStyle;startArrow=none;endArrow=block;endFill=1;exitX=0.5;exitY=-0.012;exitPerimeter=0;entryX=0.712;entryY=1.012;entryPerimeter=0;lucidId=dfWhzPb~fJB5;" edge="1" parent="1" source="PU0SAnK2rKoTtU8Le6aB-68" target="PU0SAnK2rKoTtU8Le6aB-48">
          <mxGeometry width="100" height="100" relative="1" as="geometry">
            <Array as="points">
              <mxPoint x="248" y="524" />
              <mxPoint x="533" y="524" />
              <mxPoint x="533" y="286" />
              <mxPoint x="270" y="286" />
            </Array>
          </mxGeometry>
        </mxCell>
        <mxCell id="PU0SAnK2rKoTtU8Le6aB-83" value="Honoree" style="html=1;overflow=block;blockSpacing=1;whiteSpace=wrap;fontSize=16.7;spacing=9;strokeColor=#000000;rounded=1;absoluteArcSize=1;arcSize=9;fillColor=none;strokeWidth=NaN;lucidId=X3WhBYvx7_gn;" vertex="1" parent="1">
          <mxGeometry x="735" y="750" width="90" height="30" as="geometry" />
        </mxCell>
        <mxCell id="PU0SAnK2rKoTtU8Le6aB-84" value="Artist" style="html=1;overflow=block;blockSpacing=1;whiteSpace=wrap;fontSize=16.7;spacing=9;strokeColor=#000000;rounded=1;absoluteArcSize=1;arcSize=9;fillColor=none;strokeWidth=NaN;lucidId=YgXhCKjidzSr;" vertex="1" parent="1">
          <mxGeometry x="90" y="825" width="105" height="30" as="geometry" />
        </mxCell>
        <mxCell id="PU0SAnK2rKoTtU8Le6aB-85" value="BornDate" style="html=1;overflow=block;blockSpacing=1;whiteSpace=wrap;fontSize=16.7;spacing=9;strokeColor=#000000;rounded=1;absoluteArcSize=1;arcSize=9;fillColor=none;strokeWidth=NaN;lucidId=YgXhHYCR~-B6;" vertex="1" parent="1">
          <mxGeometry x="300" y="855" width="105" height="30" as="geometry" />
        </mxCell>
        <mxCell id="PU0SAnK2rKoTtU8Le6aB-86" value="Epoch" style="html=1;overflow=block;blockSpacing=1;whiteSpace=wrap;fontSize=16.7;spacing=9;strokeColor=#000000;rounded=1;absoluteArcSize=1;arcSize=9;fillColor=none;strokeWidth=NaN;lucidId=YgXhaE7p1ZRA;" vertex="1" parent="1">
          <mxGeometry x="90" y="855" width="105" height="30" as="geometry" />
        </mxCell>
        <mxCell id="PU0SAnK2rKoTtU8Le6aB-87" value="AName" style="html=1;overflow=block;blockSpacing=1;whiteSpace=wrap;fontSize=16.7;fontStyle=4;spacing=9;strokeColor=#000000;rounded=1;absoluteArcSize=1;arcSize=9;fillColor=none;strokeWidth=NaN;lucidId=YgXhOIR~dvD6;" vertex="1" parent="1">
          <mxGeometry x="195" y="855" width="105" height="30" as="geometry" />
        </mxCell>
        <mxCell id="PU0SAnK2rKoTtU8Le6aB-88" value="ArtistName" style="html=1;overflow=block;blockSpacing=1;whiteSpace=wrap;fontSize=16.7;spacing=9;strokeColor=#000000;rounded=1;absoluteArcSize=1;arcSize=9;fillColor=none;strokeWidth=NaN;lucidId=aiXhRPzClANE;" vertex="1" parent="1">
          <mxGeometry x="525" y="226" width="135" height="30" as="geometry" />
        </mxCell>
        <mxCell id="PU0SAnK2rKoTtU8Le6aB-89" value="" style="html=1;jettySize=18;whiteSpace=wrap;fontSize=13;strokeColor=#3a414a;strokeOpacity=100;strokeWidth=0.8;rounded=1;arcSize=12;edgeStyle=orthogonalEdgeStyle;startArrow=none;endArrow=block;endFill=1;exitX=0.5;exitY=1.013;exitPerimeter=0;entryX=0.5;entryY=-0.012;entryPerimeter=0;lucidId=snXhSm5-PD.Y;" edge="1" parent="1" source="PU0SAnK2rKoTtU8Le6aB-88" target="PU0SAnK2rKoTtU8Le6aB-87">
          <mxGeometry width="100" height="100" relative="1" as="geometry">
            <Array as="points">
              <mxPoint x="593" y="271" />
              <mxPoint x="840" y="271" />
              <mxPoint x="840" y="818" />
              <mxPoint x="248" y="818" />
            </Array>
          </mxGeometry>
        </mxCell>
      </root>
    </mxGraphModel>
  </diagram>
</mxfile>
